<svg xmlns="http://www.w3.org/2000/svg" viewBox="0 0 489.9 489.9"><path d="M486.6 255.1c4.6-6.3 4.4-14.9-.5-21C412 143 332 96.8 248.2 96.8c-142.1 0-240.8 132.4-244.9 138-4.6 6.3-4.4 14.9.5 21 74 91.2 154 137.4 237.8 137.4 142.1 0 240.8-132.4 245-138.1zM241.5 363c-72.4 0-142.9-39.8-209.8-118.2 26.2-31 109.6-118 216.7-118 72.4 0 142.9 39.8 209.8 118.2-26.3 31.1-109.6 118-216.7 118z"/><path d="M244.9 172.8c-39.8 0-72.2 32.4-72.2 72.2s32.4 72.2 72.2 72.2 72.2-32.4 72.2-72.2-32.4-72.2-72.2-72.2z"/></svg>