<svg version="1.1" id="Capa_1" xmlns="http://www.w3.org/2000/svg" xmlns:xlink="http://www.w3.org/1999/xlink" x="0px" y="0px"
	 viewBox="0 0 365.7 365.7" style="enable-background:new 0 0 365.7 365.7;" xml:space="preserve">
<path d="M216.4,216.7h123.3c13.6,0,24.7-11,24.7-24.7v-16.4c0-13.6-11-24.7-24.7-24.7H216.4l0-123.4c0-13.6-11-24.7-24.7-24.7
	l-16.5,0c-13.6,0-24.7,11-24.7,24.7V151H27.3c-13.6,0-24.7,11-24.7,24.7v16.4c0,13.6,11,24.7,24.7,24.7h123.3l0,123.3
	c0,13.6,11,24.7,24.7,24.7h16.4c13.6,0,24.7-11,24.7-24.7L216.4,216.7z"/>
</svg>
